<svg width="181" height="50" fill="none" xmlns="http://www.w3.org/2000/svg"><path d="M62.38 33.64a2.6 2.6 0 01-1.52-.28c-.37-.21-.56-.56-.56-1.04 0-.39.11-.68.34-.88.21-.19.55-.3 1-.32l.56-.04a.8.8 0 00.6-.28c.16-.17.24-.4.24-.66V21.6c0-.55.17-.95.5-1.22.35-.28.77-.42 1.28-.42.5 0 .93.14 1.26.42.35.27.52.67.52 1.22v8.26c0 1.12-.3 2-.92 2.64-.6.64-1.51 1-2.74 1.1l-.56.04zm2.4-15.08c-.6 0-1.08-.15-1.44-.46a1.63 1.63 0 01-.52-1.26c0-.52.17-.93.52-1.24.36-.3.84-.46 1.44-.46.59 0 1.06.15 1.42.46.36.3.54.72.54 1.24s-.18.94-.54 1.26c-.35.3-.82.46-1.42.46zm8.84 11.6c-1.08 0-2.03-.2-2.86-.62a4.67 4.67 0 01-1.9-1.8 5.4 5.4 0 01-.66-2.72c0-1.04.22-1.94.66-2.7a4.54 4.54 0 011.9-1.78 6.24 6.24 0 012.86-.62c1.1 0 2.05.2 2.86.62.82.41 1.44 1 1.88 1.78.46.76.69 1.66.69 2.7 0 1.04-.23 1.95-.69 2.72a4.54 4.54 0 01-1.88 1.8c-.8.41-1.76.62-2.86.62zm0-2.66c1.27 0 1.9-.83 1.9-2.48s-.63-2.48-1.9-2.48c-1.26 0-1.9.83-1.9 2.48s.64 2.48 1.9 2.48zm13.56-7.58c.85 0 1.6.2 2.26.62.65.41 1.16 1 1.52 1.78.37.76.56 1.65.56 2.66 0 1.01-.19 1.91-.56 2.7a4 4 0 01-3.78 2.48c-.66 0-1.26-.13-1.8-.4a2.89 2.89 0 01-1.22-1.1c-.04.45-.22.81-.54 1.08-.3.25-.72.38-1.22.38-.54 0-.96-.15-1.28-.44-.3-.3-.46-.7-.46-1.2V17.4c0-.47.16-.85.5-1.14.33-.3.77-.46 1.32-.46.52 0 .94.14 1.26.42.32.28.48.65.48 1.12v3.98c.29-.43.7-.77 1.22-1.02a4 4 0 011.74-.38zm-1.1 7.58a1.7 1.7 0 001.42-.64c.33-.44.5-1.07.5-1.88 0-.77-.17-1.37-.5-1.78-.32-.41-.79-.62-1.4-.62-.63 0-1.1.21-1.44.64-.34.41-.5 1.01-.5 1.8 0 .8.16 1.41.5 1.84.33.43.8.64 1.42.64zm10.96 2.66c-.9 0-1.65-.07-2.26-.2a5.02 5.02 0 01-1.62-.64.97.97 0 01-.44-.48c-.1-.23-.16-.48-.16-.76 0-.36.09-.65.28-.88.2-.24.44-.36.74-.36.2 0 .38.03.56.08a13.83 13.83 0 001.76.56c.33.08.75.12 1.26.12.36 0 .64-.05.84-.14.21-.1.32-.25.32-.44a.4.4 0 00-.16-.34c-.1-.08-.28-.15-.56-.22-.28-.08-.76-.19-1.42-.32a5.66 5.66 0 01-2.58-1.02 2.5 2.5 0 01-.78-1.96c0-.61.18-1.17.56-1.66.38-.5.91-.88 1.58-1.16a5.73 5.73 0 012.24-.42 6.84 6.84 0 013.26.84c.41.24.62.63.62 1.16 0 .37-.1.69-.3.94a.9.9 0 01-.74.38 3 3 0 01-1.24-.34 5.4 5.4 0 00-.86-.32 2.73 2.73 0 00-.86-.12c-.34 0-.6.05-.78.16-.19.1-.28.23-.28.42 0 .21.12.38.38.5s.78.25 1.56.4c1.3.23 2.2.57 2.74 1.04.53.45.8 1.11.8 1.98 0 .97-.4 1.75-1.22 2.34-.8.57-1.88.86-3.24.86zm11.3-10.14c1.15 0 2.02.33 2.6.98.59.64.88 1.6.88 2.88v5.42c0 .25-.07.45-.22.6a.83.83 0 01-.58.2.86.86 0 01-.6-.2.81.81 0 01-.22-.6v-5.38c0-.87-.18-1.5-.54-1.92-.34-.41-.9-.62-1.68-.62-.9 0-1.6.27-2.14.82-.53.55-.8 1.29-.8 2.22v4.88c0 .25-.07.45-.22.6-.13.13-.32.2-.58.2a.86.86 0 01-.6-.2.81.81 0 01-.22-.6V16.58c0-.23.08-.41.22-.56a.85.85 0 01.6-.22c.26 0 .45.07.58.22.15.13.22.32.22.56v5.24c.32-.59.77-1.03 1.34-1.34.58-.3 1.23-.46 1.96-.46zm7.27 10.08a.9.9 0 01-.6-.2.81.81 0 01-.22-.6v-8.44c0-.25.07-.45.22-.58a.85.85 0 01.6-.22c.24 0 .43.07.58.22.15.13.22.33.22.58v8.44c0 .27-.07.47-.22.6a.83.83 0 01-.58.2zm0-12.14c-.32 0-.58-.1-.78-.28a.96.96 0 01-.3-.74c0-.3.1-.53.3-.72.2-.19.46-.28.78-.28s.58.1.78.28c.2.19.3.43.3.72 0 .3-.1.55-.3.74-.2.19-.46.28-.78.28zm8.73 2.06a4.04 4.04 0 013.78 2.44c.36.76.54 1.65.54 2.66 0 1.01-.18 1.9-.54 2.66a4.08 4.08 0 01-3.78 2.36 3.9 3.9 0 01-2-.5c-.56-.33-.99-.8-1.28-1.42v4.7c0 .24-.08.43-.22.56-.14.15-.33.22-.58.22a.8.8 0 01-.6-.22.76.76 0 01-.22-.56V20.86c0-.24.07-.43.22-.58a.8.8 0 01.6-.22c.25 0 .44.07.58.22.14.15.22.34.22.58v1.08c.3-.61.72-1.09 1.28-1.42a3.9 3.9 0 012-.5zm-.32 8.78c.94 0 1.68-.32 2.2-.96.52-.64.78-1.55.78-2.72a4.3 4.3 0 00-.78-2.74c-.52-.67-1.26-1-2.2-1-.95 0-1.68.32-2.2.96-.5.64-.76 1.55-.76 2.74 0 1.19.25 2.1.76 2.76.52.64 1.25.96 2.2.96zm11.96-8.78a4.04 4.04 0 013.78 2.44c.36.76.54 1.65.54 2.66 0 1.01-.18 1.9-.54 2.66a4.07 4.07 0 01-3.78 2.36 3.9 3.9 0 01-2-.5c-.56-.33-.99-.8-1.28-1.42v4.7c0 .24-.07.43-.22.56-.13.15-.33.22-.58.22a.81.81 0 01-.6-.22.76.76 0 01-.22-.56V20.86c0-.24.07-.43.22-.58a.81.81 0 01.6-.22c.25 0 .44.07.58.22.15.15.22.34.22.58v1.08c.3-.61.72-1.09 1.28-1.42a3.9 3.9 0 012-.5zm-.32 8.78c.94 0 1.68-.32 2.2-.96.52-.64.78-1.55.78-2.72a4.3 4.3 0 00-.78-2.74c-.52-.67-1.26-1-2.2-1-.95 0-1.68.32-2.2.96-.5.64-.76 1.55-.76 2.74 0 1.19.25 2.1.76 2.76.52.64 1.25.96 2.2.96zm11.1 1.34c-.92 0-1.73-.2-2.44-.62-.7-.41-1.23-1-1.62-1.76a6.09 6.09 0 01-.56-2.68c0-1.01.19-1.9.56-2.66a4.2 4.2 0 011.62-1.78c.7-.41 1.52-.62 2.44-.62.92 0 1.73.2 2.44.62.7.41 1.25 1 1.62 1.78.39.76.58 1.65.58 2.66 0 1.01-.2 1.9-.58 2.68a4.07 4.07 0 01-1.62 1.76c-.7.41-1.52.62-2.44.62zm0-1.34c.96 0 1.7-.31 2.2-.94.52-.64.78-1.57.78-2.78 0-1.19-.26-2.1-.78-2.74a2.65 2.65 0 00-2.2-.98c-.95 0-1.68.33-2.2.98a4.25 4.25 0 00-.78 2.74c0 1.2.25 2.12.76 2.76a2.7 2.7 0 002.22.96z" fill="#23374D"/><path d="M46.81 32.97c0 8.7-7.05 10.43-15.75 10.43S15.3 41.67 15.3 32.97a15.76 15.76 0 1131.51 0z" fill="#3498DB"/><path d="M33.11 39c8.27-.78 12.19-6.88 12.89-9.96L45.11 26c-.81 1.94-2.98 6.22-5.11 7.78-2.13 1.55-6.22 2.02-8 2.06.26 1.14.49 3.16 1.11 3.16zM28.89 39c-8.27-.78-12.19-6.88-12.89-9.96l.89-3.04c.81 1.94 2.98 6.22 5.11 7.78 2.13 1.55 6.22 2.02 8 2.06-.26 1.14-.49 3.16-1.11 3.16z" fill="#1B7ABA"/><path d="M27 43.33L29.06 38h4.13L35 43.33 31 48l-4-4.67zM34 36h-6l1 2h4l1-2z" fill="#F66D6D" stroke="#23374D" stroke-width="1.08" stroke-linecap="round" stroke-linejoin="round"/><path d="M40.95 20.7c4.72 4.41 9.78 16.5.65 20.75M21.24 20.9c-4.72 4.43-9.77 16.53-.65 20.76" stroke="#23374D" stroke-width="1.08" stroke-linecap="round" stroke-linejoin="round"/><g filter="url(#filter0_d)"><path d="M43.23 3.2c2.71 1.84.32 3.84-1.08 5.32-1.05 0-3.16-.52-3.16-2.6.45-1.54 2.05-4.21 4.24-2.72z" fill="#3498DB"/><path d="M41.93 7.97l.24-.25.72-.76c.37-.4.67-.8.86-1.2.18-.38.22-.7.13-1.01-.08-.31-.34-.69-.96-1.1a1.6 1.6 0 00-1.14-.34 1.8 1.8 0 00-.96.5A5.3 5.3 0 0039.52 6c.03.77.42 1.24.93 1.55.47.27 1.04.4 1.48.43z" stroke="#23374D" stroke-width="1.08" stroke-linecap="round" stroke-linejoin="round"/></g><g filter="url(#filter1_d)"><path d="M20.02 2.44c-2.72 1.84-.33 3.84 1.07 5.32 1.06 0 3.16-.52 3.16-2.6-.45-1.54-2.04-4.21-4.23-2.72z" fill="#3498DB"/><path d="M21.32 7.22l-.25-.26-.72-.75A5.34 5.34 0 0119.5 5a1.4 1.4 0 01-.14-1.02c.09-.31.34-.69.96-1.1.45-.32.83-.38 1.14-.34.33.05.65.22.96.5a5.3 5.3 0 011.3 2.18 1.76 1.76 0 01-.93 1.55 3.5 3.5 0 01-1.47.44z" stroke="#23374D" stroke-width="1.08" stroke-linecap="round" stroke-linejoin="round"/></g><g filter="url(#filter2_d)"><path d="M46.16 19.5c0 9.3-2.28 16.84-15.1 16.84-12.83 0-15.1-7.54-15.1-16.84S22.7 2.65 31.05 2.65c8.34 0 15.1 7.54 15.1 16.85z" fill="#3498DB"/><path d="M45.62 19.5c0 4.63-.57 8.7-2.64 11.6-2.04 2.85-5.62 4.7-11.92 4.7s-9.89-1.85-11.93-4.7c-2.07-2.9-2.64-6.97-2.64-11.6 0-9.07 6.58-16.31 14.57-16.31s14.56 7.24 14.56 16.3z" stroke="#23374D" stroke-width="1.08"/></g><path d="M23.75 31.57A4.92 4.92 0 0118 27.4c1.7 1.75 4.97 1.23 5.5 1.1 9.8-2.42 8.39-1.48 13.5 0 4.1 1.18 6.36-.3 7-1.5-.4.8-.95 3.22-2.96 4.57-2.07 1.38-7.27-.94-9.19-1.35-1.92-.4-4.05.8-8.1 1.35z" fill="#1B7ABA"/><path d="M40.11 12.43H21.53c-11.52 2.72-6.2 14.78-1.2 16.09 5 1.3 8.03-2.65 10.55-1.96 3.15.87 9.02 3.32 11.2 1.52 10.1-8.37 2.82-14.13-1.97-15.65z" fill="#3498DB"/><path d="M25.08 31.32c-2.86.33-2.74-1.5-2.32-2.46l3.8-.7c.7.92 1.38 2.84-1.48 3.16zM36.82 31.32c2.85.33 2.73-1.5 2.31-2.46l-3.8-.7c-.7.92-1.37 2.84 1.49 3.16z" fill="#EEE" stroke="#23374D" stroke-width="1.08"/><path d="M37.6 27.88c7.37-2.83 7.06-10.59 5.34-14.22 2.42 1.07 6.63 4.38 4.04 9-3.23 5.75-5.54 6.13-9.39 5.22zM24.89 27.88c-7.38-2.83-7.06-10.59-5.34-14.22-2.43 1.07-6.64 4.38-4.05 9 3.24 5.75 5.55 6.13 9.39 5.22z" fill="#1B7ABA"/><ellipse cx="23.25" cy="20.77" rx="2.5" ry="2.93" transform="rotate(-28.98 23.25 20.77)" fill="#23374D"/><ellipse rx="2.5" ry="2.93" transform="scale(-1 1) rotate(-28.98 20.74 85.66)" fill="#23374D"/><path fill-rule="evenodd" clip-rule="evenodd" d="M40.98 12.36a.54.54 0 01.66-.38c2.46.66 5.32 2.4 6.31 5.21 1.02 2.87 0 6.55-4.68 10.85-.7.64-1.7.85-2.73.87-1.05.02-2.23-.14-3.4-.37-.8-.15-1.6-.33-2.37-.5l-1.04-.23a13.83 13.83 0 00-2.57-.39c-.53 0-1.38.16-2.47.4l-.85.17c-.85.19-1.77.39-2.7.56-1.23.22-2.48.38-3.58.36-1.08-.02-2.13-.23-2.83-.87-4.67-4.29-5.7-7.85-4.68-10.6 1-2.7 3.87-4.3 6.31-4.96a.54.54 0 01.28 1.04c-2.3.62-4.76 2.09-5.58 4.29-.8 2.13-.16 5.25 4.4 9.44.4.36 1.1.56 2.12.58 1 .02 2.16-.13 3.38-.34.9-.17 1.8-.36 2.64-.55l.87-.18a15.1 15.1 0 012.7-.41c.74 0 1.73.18 2.78.4l1.08.25c.75.16 1.53.34 2.3.49 1.16.21 2.26.36 3.19.34.95-.02 1.62-.21 2.02-.58 4.55-4.18 5.2-7.43 4.4-9.7-.83-2.33-3.3-3.92-5.58-4.53a.54.54 0 01-.38-.66z" fill="#23374D"/><path d="M23 11.52c.39-1.03 1.76-2.57 4.13-.48M39.13 11.52c-.39-1.03-1.76-2.57-4.13-.48" stroke="#23374D" stroke-width="1.08" stroke-linecap="round" stroke-linejoin="round"/><path d="M40.3 6.49c.9-.73 2.36-1.6.97.65-.2.33-.87.11-.98-.65zM22.94 5.62c-.9-.72-2.37-1.6-.98.65.2.33.87.11.98-.65z" fill="#23374D" stroke="#23374D" stroke-width=".22"/><circle cx="25" cy="11" r="4.5" stroke="#fff"/><circle cx="37" cy="11" r="4.5" stroke="#fff"/><path d="M29 9c.76-.77 2-1.8 4 0" stroke="#fff" stroke-linecap="round" stroke-linejoin="round"/><defs><filter id="filter0_d" x="34.99" y="2.76" width="13.48" height="13.76" filterUnits="userSpaceOnUse" color-interpolation-filters="sRGB"><feFlood flood-opacity="0" result="BackgroundImageFix"/><feColorMatrix in="SourceAlpha" values="0 0 0 0 0 0 0 0 0 0 0 0 0 0 0 0 0 0 127 0"/><feOffset dy="4"/><feGaussianBlur stdDeviation="2"/><feColorMatrix values="0 0 0 0 0 0 0 0 0 0 0 0 0 0 0 0 0 0 0.25 0"/><feBlend in2="BackgroundImageFix" result="effect1_dropShadow"/><feBlend in="SourceGraphic" in2="effect1_dropShadow" result="shape"/></filter><filter id="filter1_d" x="17.91" y="2" width="7.2" height="7.49" filterUnits="userSpaceOnUse" color-interpolation-filters="sRGB"><feFlood flood-opacity="0" result="BackgroundImageFix"/><feColorMatrix in="SourceAlpha" values="0 0 0 0 0 0 0 0 0 0 0 0 0 0 0 0 0 0 127 0"/><feOffset dy=".86"/><feGaussianBlur stdDeviation=".43"/><feColorMatrix values="0 0 0 0 0 0 0 0 0 0 0 0 0 0 0 0 0 0 0.25 0"/><feBlend in2="BackgroundImageFix" result="effect1_dropShadow"/><feBlend in="SourceGraphic" in2="effect1_dropShadow" result="shape"/></filter><filter id="filter2_d" x="11.95" y="2.65" width="38.21" height="41.69" filterUnits="userSpaceOnUse" color-interpolation-filters="sRGB"><feFlood flood-opacity="0" result="BackgroundImageFix"/><feColorMatrix in="SourceAlpha" values="0 0 0 0 0 0 0 0 0 0 0 0 0 0 0 0 0 0 127 0"/><feOffset dy="4"/><feGaussianBlur stdDeviation="2"/><feColorMatrix values="0 0 0 0 0 0 0 0 0 0 0 0 0 0 0 0 0 0 0.25 0"/><feBlend in2="BackgroundImageFix" result="effect1_dropShadow"/><feBlend in="SourceGraphic" in2="effect1_dropShadow" result="shape"/></filter></defs></svg>