<svg width="181" height="50" fill="none" xmlns="http://www.w3.org/2000/svg"><path d="M39.5 0l-36 9.889V21H49V9.889L39.5 0z" fill="#F66D6D"/><path d="M51 7.5l-49.5 1-1 29H31l5 9.5 5-9.5h10v-30z" fill="#3498DB"/><circle cx="13" cy="23" r="3" fill="#fff"/><circle cx="26" cy="23" r="3" fill="#fff"/><circle cx="39" cy="23" r="3" fill="#fff"/><path d="M62.38 33.64c-.64.04-1.147-.053-1.52-.28-.373-.213-.56-.56-.56-1.04 0-.387.113-.68.34-.88.213-.187.547-.293 1-.32l.56-.04a.804.804 0 0 0 .6-.28.935.935 0 0 0 .24-.66V21.6c0-.547.167-.953.5-1.22.347-.28.773-.42 1.28-.42s.927.14 1.26.42c.347.267.52.673.52 1.22v8.26c0 1.12-.307 2-.92 2.64-.6.64-1.513 1.007-2.74 1.1l-.56.04zm2.4-15.08c-.6 0-1.08-.153-1.44-.46-.347-.32-.52-.74-.52-1.26s.173-.933.52-1.24c.36-.307.84-.46 1.44-.46.587 0 1.06.153 1.42.46.36.307.54.72.54 1.24s-.18.94-.54 1.26c-.347.307-.82.46-1.42.46zm8.845 11.6c-1.08 0-2.033-.207-2.86-.62a4.667 4.667 0 0 1-1.9-1.8c-.44-.773-.66-1.68-.66-2.72 0-1.04.22-1.94.66-2.7a4.536 4.536 0 0 1 1.9-1.78c.813-.413 1.767-.62 2.86-.62s2.047.207 2.86.62a4.41 4.41 0 0 1 1.88 1.78c.453.76.68 1.66.68 2.7 0 1.04-.227 1.947-.68 2.72a4.536 4.536 0 0 1-1.88 1.8c-.813.413-1.767.62-2.86.62zm0-2.66c1.267 0 1.9-.827 1.9-2.48s-.633-2.48-1.9-2.48-1.9.827-1.9 2.48.633 2.48 1.9 2.48zm13.552-7.58c.853 0 1.607.207 2.26.62.654.413 1.16 1.007 1.52 1.78.374.76.56 1.647.56 2.66 0 1.013-.186 1.913-.56 2.7-.36.787-.873 1.4-1.54 1.84-.653.427-1.4.64-2.24.64a4.05 4.05 0 0 1-1.8-.4c-.533-.267-.94-.633-1.22-1.1-.04.453-.22.813-.54 1.08-.306.253-.713.38-1.22.38-.533 0-.96-.147-1.28-.44-.306-.307-.46-.707-.46-1.2V17.4c0-.467.167-.847.5-1.14.334-.307.773-.46 1.32-.46.52 0 .94.14 1.26.42.32.28.48.653.48 1.12v3.98c.293-.427.7-.767 1.22-1.02a4.003 4.003 0 0 1 1.74-.38zm-1.1 7.58c.614 0 1.087-.213 1.42-.64.334-.44.5-1.067.5-1.88 0-.773-.166-1.367-.5-1.78-.32-.413-.787-.62-1.4-.62-.626 0-1.106.213-1.44.64-.333.413-.5 1.013-.5 1.8 0 .8.167 1.413.5 1.84.334.427.807.64 1.42.64zm10.96 2.66c-.893 0-1.647-.067-2.26-.2a5.022 5.022 0 0 1-1.62-.64.973.973 0 0 1-.44-.48 1.763 1.763 0 0 1-.16-.76c0-.36.093-.653.28-.88.2-.24.447-.36.74-.36.2 0 .387.027.56.08.174.04.387.113.64.22.427.147.8.26 1.12.34.334.08.753.12 1.26.12.36 0 .64-.047.84-.14.213-.107.32-.253.32-.44a.4.4 0 0 0-.16-.34c-.093-.08-.28-.153-.56-.22a20.54 20.54 0 0 0-1.42-.32c-1.187-.227-2.047-.567-2.58-1.02-.52-.467-.78-1.12-.78-1.96 0-.613.187-1.167.56-1.66.387-.493.913-.88 1.58-1.16.667-.28 1.414-.42 2.24-.42.6 0 1.18.073 1.74.22.573.147 1.08.353 1.52.62.414.24.62.627.62 1.16 0 .373-.1.687-.3.94-.2.253-.446.38-.74.38-.347 0-.76-.113-1.24-.34a5.407 5.407 0 0 0-.86-.32c-.24-.08-.526-.12-.86-.12-.333 0-.593.053-.78.16-.186.093-.28.233-.28.42 0 .213.127.38.38.5.267.12.787.253 1.56.4 1.294.227 2.207.573 2.74 1.04.534.453.8 1.113.8 1.98 0 .973-.406 1.753-1.22 2.34-.8.573-1.88.86-3.24.86zm14.285-10.1c.253 0 .453.073.6.22.147.147.22.34.22.58v8.48c0 1.453-.373 2.547-1.12 3.28-.747.747-1.853 1.12-3.32 1.12-1.427 0-2.613-.28-3.56-.84-.48-.267-.72-.573-.72-.92a.73.73 0 0 1 .14-.46c.107-.12.24-.18.4-.18.133 0 .373.093.72.28.467.24.927.433 1.38.58.453.147.993.22 1.62.22.947 0 1.66-.253 2.14-.76.48-.493.72-1.22.72-2.18v-1.72a3.035 3.035 0 0 1-1.3 1.44c-.573.333-1.253.5-2.04.5-.853 0-1.613-.2-2.28-.6-.653-.4-1.167-.967-1.54-1.7-.36-.733-.54-1.58-.54-2.54s.18-1.807.54-2.54c.373-.733.887-1.3 1.54-1.7.667-.4 1.427-.6 2.28-.6.773 0 1.447.167 2.02.5a3.197 3.197 0 0 1 1.3 1.42v-1.08c0-.24.067-.433.2-.58.147-.147.347-.22.6-.22zm-3.8 8.3c.933 0 1.667-.307 2.2-.92.533-.627.8-1.487.8-2.58 0-1.08-.267-1.927-.8-2.54-.52-.627-1.253-.94-2.2-.94-.947 0-1.693.313-2.24.94-.533.613-.8 1.46-.8 2.54 0 1.093.267 1.953.8 2.58.547.613 1.293.92 2.24.92zm11.659 1.78c-.92 0-1.734-.207-2.44-.62-.694-.413-1.234-1-1.62-1.76-.374-.773-.56-1.667-.56-2.68 0-1.013.186-1.9.56-2.66.386-.773.926-1.367 1.62-1.78.706-.413 1.52-.62 2.44-.62.92 0 1.733.207 2.44.62.706.413 1.246 1.007 1.62 1.78.386.76.58 1.647.58 2.66 0 1.013-.194 1.907-.58 2.68a4.07 4.07 0 0 1-1.62 1.76c-.707.413-1.52.62-2.44.62zm0-1.34c.96 0 1.693-.313 2.2-.94.52-.64.78-1.567.78-2.78 0-1.187-.26-2.1-.78-2.74-.52-.653-1.254-.98-2.2-.98-.947 0-1.68.327-2.2.98-.52.64-.78 1.553-.78 2.74 0 1.2.253 2.12.76 2.76.52.64 1.26.96 2.22.96zm20.256-8.22c.134-.32.354-.48.66-.48.2 0 .38.067.54.2.16.133.24.3.24.5 0 .093-.02.193-.06.3l-3.32 8.4a1 1 0 0 1-.36.42.91.91 0 0 1-.5.14.98.98 0 0 1-.5-.14 1.062 1.062 0 0 1-.34-.42l-2.76-7.02-2.74 7.02a.868.868 0 0 1-.34.42c-.16.093-.333.14-.52.14a.98.98 0 0 1-.5-.14 1 1 0 0 1-.36-.42l-3.32-8.38a.682.682 0 0 1 .2-.82.955.955 0 0 1 .6-.22c.32 0 .547.16.68.48l2.74 7.38 2.82-7.32a.973.973 0 0 1 .32-.4c.147-.093.3-.14.46-.14a.78.78 0 0 1 .46.14.794.794 0 0 1 .32.4l2.82 7.3 2.76-7.34zm8.436-.56c1.147 0 2.013.327 2.6.98.587.64.88 1.6.88 2.88v5.42c0 .253-.073.453-.22.6-.147.133-.34.2-.58.2-.253 0-.453-.067-.6-.2-.147-.147-.22-.347-.22-.6v-5.38c0-.867-.18-1.507-.54-1.92-.347-.413-.907-.62-1.68-.62-.893 0-1.607.273-2.14.82-.533.547-.8 1.287-.8 2.22v4.88c0 .253-.073.453-.22.6-.133.133-.327.2-.58.2-.253 0-.453-.067-.6-.2-.147-.147-.22-.347-.22-.6V16.58c0-.227.073-.413.22-.56.16-.147.36-.22.6-.22.253 0 .447.073.58.22.147.133.22.32.22.56v5.24a3.247 3.247 0 0 1 1.34-1.34c.573-.307 1.227-.46 1.96-.46zm13.987 7.72c.147 0 .274.06.38.18.107.12.16.273.16.46 0 .333-.233.64-.7.92-.48.28-.986.493-1.52.64-.533.133-1.053.2-1.56.2-1.506 0-2.7-.447-3.58-1.34-.866-.893-1.3-2.127-1.3-3.7 0-1 .194-1.88.58-2.64.387-.773.927-1.373 1.62-1.8.707-.427 1.507-.64 2.4-.64 1.267 0 2.274.413 3.02 1.24.747.827 1.12 1.947 1.12 3.36 0 .267-.053.46-.16.58-.106.12-.28.18-.52.18h-6.44c.12 2.293 1.207 3.44 3.26 3.44.52 0 .967-.067 1.34-.2.374-.147.774-.34 1.2-.58.347-.2.58-.3.7-.3zm-3.5-6.46c-.853 0-1.54.267-2.06.8-.506.533-.806 1.287-.9 2.26h5.66c-.026-.987-.273-1.74-.74-2.26-.466-.533-1.12-.8-1.96-.8zm11.327-1.22c.56-.04.84.187.84.68 0 .213-.06.387-.18.52-.12.12-.326.193-.62.22l-.6.06c-.893.08-1.56.4-2 .96-.426.547-.64 1.193-.64 1.94v4.86c0 .267-.073.467-.22.6-.146.133-.34.2-.58.2a.906.906 0 0 1-.6-.2c-.146-.147-.22-.347-.22-.6v-8.44c0-.253.08-.447.24-.58a.829.829 0 0 1 .58-.22c.214 0 .394.073.54.22.147.133.22.32.22.56v1.12c.28-.587.674-1.033 1.18-1.34a4.1 4.1 0 0 1 1.78-.54l.28-.02zm9.576 7.68c.146 0 .273.06.38.18a.67.67 0 0 1 .16.46c0 .333-.234.64-.7.92-.48.28-.987.493-1.52.64a6.43 6.43 0 0 1-1.56.2c-1.507 0-2.7-.447-3.58-1.34-.867-.893-1.3-2.127-1.3-3.7 0-1 .193-1.88.58-2.64.386-.773.926-1.373 1.62-1.8.706-.427 1.506-.64 2.4-.64 1.266 0 2.273.413 3.02 1.24.746.827 1.12 1.947 1.12 3.36 0 .267-.054.46-.16.58-.107.12-.28.18-.52.18h-6.44c.12 2.293 1.206 3.44 3.26 3.44.52 0 .966-.067 1.34-.2.373-.147.773-.34 1.2-.58.346-.2.58-.3.7-.3zm-3.5-6.46c-.854 0-1.54.267-2.06.8-.507.533-.807 1.287-.9 2.26h5.66c-.027-.987-.274-1.74-.74-2.26-.467-.533-1.12-.8-1.96-.8z" fill="#23374D"/></svg>